<mxfile host="app.diagrams.net" modified="2020-11-18T04:54:46.472Z" agent="5.0 (X11)" etag="SRgU-3JxcpbQLrgwrfeU" version="13.9.9" type="github">
  <diagram id="AtUMWazjSFQByDdgg-Fo" name="Page-1">
    <mxGraphModel dx="1422" dy="797" grid="1" gridSize="10" guides="1" tooltips="1" connect="1" arrows="1" fold="1" page="1" pageScale="1" pageWidth="850" pageHeight="1100" math="0" shadow="0">
      <root>
        <mxCell id="0" />
        <mxCell id="1" parent="0" />
        <mxCell id="gj13K4cqCs89u1ELZ8Dc-1" value="Conv3x3" style="whiteSpace=wrap;html=1;rotation=-90;" vertex="1" parent="1">
          <mxGeometry x="30" y="130" width="135" height="30" as="geometry" />
        </mxCell>
        <mxCell id="gj13K4cqCs89u1ELZ8Dc-3" value="" style="endArrow=classic;html=1;" edge="1" parent="1">
          <mxGeometry width="50" height="50" relative="1" as="geometry">
            <mxPoint x="40" y="144.5" as="sourcePoint" />
            <mxPoint x="80" y="144.5" as="targetPoint" />
          </mxGeometry>
        </mxCell>
        <mxCell id="gj13K4cqCs89u1ELZ8Dc-4" value="224x224x3" style="text;html=1;strokeColor=none;fillColor=none;align=center;verticalAlign=middle;whiteSpace=wrap;rounded=0;rotation=-90;" vertex="1" parent="1">
          <mxGeometry x="40" y="97" width="40" height="20" as="geometry" />
        </mxCell>
        <mxCell id="gj13K4cqCs89u1ELZ8Dc-5" value="MBConv6,3x3" style="whiteSpace=wrap;html=1;rotation=-90;fontStyle=1" vertex="1" parent="1">
          <mxGeometry x="90" y="130" width="135" height="30" as="geometry" />
        </mxCell>
        <mxCell id="gj13K4cqCs89u1ELZ8Dc-7" value="&lt;font color=&quot;#FF66B3&quot;&gt;MBConv6,3x3&lt;/font&gt;" style="whiteSpace=wrap;html=1;rotation=-90;fontStyle=1" vertex="1" parent="1">
          <mxGeometry x="150" y="130" width="135" height="30" as="geometry" />
        </mxCell>
        <mxCell id="gj13K4cqCs89u1ELZ8Dc-8" value="&lt;font color=&quot;#FF66B3&quot;&gt;MBConv6,3x3&lt;/font&gt;" style="whiteSpace=wrap;html=1;rotation=-90;fontStyle=1" vertex="1" parent="1">
          <mxGeometry x="210" y="130" width="135" height="30" as="geometry" />
        </mxCell>
        <mxCell id="gj13K4cqCs89u1ELZ8Dc-9" value="&lt;font color=&quot;#66B2FF&quot;&gt;MBConv6,5x5&lt;/font&gt;" style="whiteSpace=wrap;html=1;rotation=-90;fontStyle=1" vertex="1" parent="1">
          <mxGeometry x="253.75" y="128.75" width="172.5" height="35" as="geometry" />
        </mxCell>
        <mxCell id="gj13K4cqCs89u1ELZ8Dc-10" value="&lt;font color=&quot;#66B2FF&quot;&gt;MBConv6,5x5&lt;/font&gt;" style="whiteSpace=wrap;html=1;rotation=-90;fontStyle=1" vertex="1" parent="1">
          <mxGeometry x="320" y="130" width="172.5" height="35" as="geometry" />
        </mxCell>
        <mxCell id="gj13K4cqCs89u1ELZ8Dc-11" value="&lt;font color=&quot;#FF66B3&quot;&gt;MBConv6,3x3&lt;/font&gt;" style="whiteSpace=wrap;html=1;rotation=-90;fontStyle=1" vertex="1" parent="1">
          <mxGeometry x="400" y="133.75" width="135" height="30" as="geometry" />
        </mxCell>
        <mxCell id="gj13K4cqCs89u1ELZ8Dc-12" value="&lt;font color=&quot;#FF66B3&quot;&gt;MBConv6,3x3&lt;/font&gt;" style="whiteSpace=wrap;html=1;rotation=-90;fontStyle=1" vertex="1" parent="1">
          <mxGeometry x="460" y="132" width="135" height="30" as="geometry" />
        </mxCell>
        <mxCell id="gj13K4cqCs89u1ELZ8Dc-13" value="&lt;font color=&quot;#FF66B3&quot;&gt;MBConv6,3x3&lt;/font&gt;" style="whiteSpace=wrap;html=1;rotation=-90;fontStyle=1" vertex="1" parent="1">
          <mxGeometry x="520" y="132.5" width="135" height="30" as="geometry" />
        </mxCell>
        <mxCell id="gj13K4cqCs89u1ELZ8Dc-14" value="&lt;font color=&quot;#66B2FF&quot;&gt;MBConv6,5x5&lt;/font&gt;" style="whiteSpace=wrap;html=1;rotation=-90;fontStyle=1" vertex="1" parent="1">
          <mxGeometry x="564" y="133.75" width="172.5" height="35" as="geometry" />
        </mxCell>
        <mxCell id="gj13K4cqCs89u1ELZ8Dc-15" value="&lt;font color=&quot;#66B2FF&quot;&gt;MBConv6,5x5&lt;/font&gt;" style="whiteSpace=wrap;html=1;rotation=-90;fontStyle=1" vertex="1" parent="1">
          <mxGeometry x="631" y="133.75" width="172.5" height="35" as="geometry" />
        </mxCell>
        <mxCell id="gj13K4cqCs89u1ELZ8Dc-16" value="&lt;font color=&quot;#66B2FF&quot;&gt;MBConv6,5x5&lt;/font&gt;" style="whiteSpace=wrap;html=1;rotation=-90;fontStyle=1" vertex="1" parent="1">
          <mxGeometry x="698" y="133.75" width="172.5" height="35" as="geometry" />
        </mxCell>
        <mxCell id="gj13K4cqCs89u1ELZ8Dc-17" value="&lt;font color=&quot;#66B2FF&quot;&gt;MBConv6,5x5&lt;/font&gt;" style="whiteSpace=wrap;html=1;rotation=-90;fontStyle=1" vertex="1" parent="1">
          <mxGeometry x="764" y="133.75" width="172.5" height="35" as="geometry" />
        </mxCell>
        <mxCell id="gj13K4cqCs89u1ELZ8Dc-18" value="&lt;font color=&quot;#66B2FF&quot;&gt;MBConv6,5x5&lt;/font&gt;" style="whiteSpace=wrap;html=1;rotation=-90;fontStyle=1" vertex="1" parent="1">
          <mxGeometry x="831" y="133.75" width="172.5" height="35" as="geometry" />
        </mxCell>
        <mxCell id="gj13K4cqCs89u1ELZ8Dc-19" value="&lt;font color=&quot;#66B2FF&quot;&gt;MBConv6,5x5&lt;/font&gt;" style="whiteSpace=wrap;html=1;rotation=-90;fontStyle=1" vertex="1" parent="1">
          <mxGeometry x="898" y="133.75" width="172.5" height="35" as="geometry" />
        </mxCell>
        <mxCell id="gj13K4cqCs89u1ELZ8Dc-20" value="&lt;font color=&quot;#66B2FF&quot;&gt;MBConv6,5x5&lt;/font&gt;" style="whiteSpace=wrap;html=1;rotation=-90;fontStyle=1" vertex="1" parent="1">
          <mxGeometry x="963" y="135" width="172.5" height="35" as="geometry" />
        </mxCell>
        <mxCell id="gj13K4cqCs89u1ELZ8Dc-21" value="&lt;font color=&quot;#FF66B3&quot;&gt;MBConv6,3x3&lt;/font&gt;" style="whiteSpace=wrap;html=1;rotation=-90;fontStyle=1" vertex="1" parent="1">
          <mxGeometry x="1045" y="137.5" width="135" height="30" as="geometry" />
        </mxCell>
        <mxCell id="gj13K4cqCs89u1ELZ8Dc-23" value="" style="endArrow=classic;html=1;" edge="1" parent="1">
          <mxGeometry width="50" height="50" relative="1" as="geometry">
            <mxPoint x="112" y="144.5" as="sourcePoint" />
            <mxPoint x="142" y="145" as="targetPoint" />
          </mxGeometry>
        </mxCell>
        <mxCell id="gj13K4cqCs89u1ELZ8Dc-24" value="" style="endArrow=classic;html=1;" edge="1" parent="1">
          <mxGeometry width="50" height="50" relative="1" as="geometry">
            <mxPoint x="171" y="144.5" as="sourcePoint" />
            <mxPoint x="201" y="145" as="targetPoint" />
          </mxGeometry>
        </mxCell>
        <mxCell id="gj13K4cqCs89u1ELZ8Dc-25" value="" style="endArrow=classic;html=1;" edge="1" parent="1">
          <mxGeometry width="50" height="50" relative="1" as="geometry">
            <mxPoint x="231" y="144.5" as="sourcePoint" />
            <mxPoint x="261" y="145" as="targetPoint" />
          </mxGeometry>
        </mxCell>
        <mxCell id="gj13K4cqCs89u1ELZ8Dc-26" value="" style="endArrow=classic;html=1;" edge="1" parent="1">
          <mxGeometry width="50" height="50" relative="1" as="geometry">
            <mxPoint x="291" y="146.5" as="sourcePoint" />
            <mxPoint x="321" y="147" as="targetPoint" />
          </mxGeometry>
        </mxCell>
        <mxCell id="gj13K4cqCs89u1ELZ8Dc-27" value="" style="endArrow=classic;html=1;" edge="1" parent="1">
          <mxGeometry width="50" height="50" relative="1" as="geometry">
            <mxPoint x="360" y="147" as="sourcePoint" />
            <mxPoint x="390" y="147.5" as="targetPoint" />
          </mxGeometry>
        </mxCell>
        <mxCell id="gj13K4cqCs89u1ELZ8Dc-28" value="" style="endArrow=classic;html=1;" edge="1" parent="1">
          <mxGeometry width="50" height="50" relative="1" as="geometry">
            <mxPoint x="425" y="148.25" as="sourcePoint" />
            <mxPoint x="455" y="148.75" as="targetPoint" />
          </mxGeometry>
        </mxCell>
        <mxCell id="gj13K4cqCs89u1ELZ8Dc-29" value="" style="endArrow=classic;html=1;" edge="1" parent="1">
          <mxGeometry width="50" height="50" relative="1" as="geometry">
            <mxPoint x="481" y="150.75" as="sourcePoint" />
            <mxPoint x="511" y="151.25" as="targetPoint" />
          </mxGeometry>
        </mxCell>
        <mxCell id="gj13K4cqCs89u1ELZ8Dc-30" value="" style="endArrow=classic;html=1;" edge="1" parent="1">
          <mxGeometry width="50" height="50" relative="1" as="geometry">
            <mxPoint x="542" y="150.75" as="sourcePoint" />
            <mxPoint x="572" y="151.25" as="targetPoint" />
          </mxGeometry>
        </mxCell>
        <mxCell id="gj13K4cqCs89u1ELZ8Dc-31" value="" style="endArrow=classic;html=1;" edge="1" parent="1">
          <mxGeometry width="50" height="50" relative="1" as="geometry">
            <mxPoint x="602" y="150.75" as="sourcePoint" />
            <mxPoint x="632" y="151.25" as="targetPoint" />
          </mxGeometry>
        </mxCell>
        <mxCell id="gj13K4cqCs89u1ELZ8Dc-32" value="" style="endArrow=classic;html=1;" edge="1" parent="1">
          <mxGeometry width="50" height="50" relative="1" as="geometry">
            <mxPoint x="669" y="150.75" as="sourcePoint" />
            <mxPoint x="699" y="151.25" as="targetPoint" />
          </mxGeometry>
        </mxCell>
        <mxCell id="gj13K4cqCs89u1ELZ8Dc-33" value="" style="endArrow=classic;html=1;" edge="1" parent="1">
          <mxGeometry width="50" height="50" relative="1" as="geometry">
            <mxPoint x="736.5" y="150.75" as="sourcePoint" />
            <mxPoint x="766.5" y="151.25" as="targetPoint" />
          </mxGeometry>
        </mxCell>
        <mxCell id="gj13K4cqCs89u1ELZ8Dc-34" value="" style="endArrow=classic;html=1;" edge="1" parent="1">
          <mxGeometry width="50" height="50" relative="1" as="geometry">
            <mxPoint x="802.5" y="150.75" as="sourcePoint" />
            <mxPoint x="832.5" y="151.25" as="targetPoint" />
          </mxGeometry>
        </mxCell>
        <mxCell id="gj13K4cqCs89u1ELZ8Dc-35" value="" style="endArrow=classic;html=1;" edge="1" parent="1">
          <mxGeometry width="50" height="50" relative="1" as="geometry">
            <mxPoint x="868.5" y="150.75" as="sourcePoint" />
            <mxPoint x="898.5" y="151.25" as="targetPoint" />
          </mxGeometry>
        </mxCell>
        <mxCell id="gj13K4cqCs89u1ELZ8Dc-36" value="" style="endArrow=classic;html=1;" edge="1" parent="1">
          <mxGeometry width="50" height="50" relative="1" as="geometry">
            <mxPoint x="935.5" y="150.75" as="sourcePoint" />
            <mxPoint x="965.5" y="151.25" as="targetPoint" />
          </mxGeometry>
        </mxCell>
        <mxCell id="gj13K4cqCs89u1ELZ8Dc-37" value="" style="endArrow=classic;html=1;" edge="1" parent="1">
          <mxGeometry width="50" height="50" relative="1" as="geometry">
            <mxPoint x="1002.5" y="150.75" as="sourcePoint" />
            <mxPoint x="1032.5" y="151.25" as="targetPoint" />
          </mxGeometry>
        </mxCell>
        <mxCell id="gj13K4cqCs89u1ELZ8Dc-38" value="" style="endArrow=classic;html=1;" edge="1" parent="1">
          <mxGeometry width="50" height="50" relative="1" as="geometry">
            <mxPoint x="1067.5" y="150.75" as="sourcePoint" />
            <mxPoint x="1097.5" y="151.25" as="targetPoint" />
          </mxGeometry>
        </mxCell>
        <mxCell id="gj13K4cqCs89u1ELZ8Dc-39" value="" style="endArrow=classic;html=1;" edge="1" parent="1">
          <mxGeometry width="50" height="50" relative="1" as="geometry">
            <mxPoint x="1128" y="152" as="sourcePoint" />
            <mxPoint x="1158" y="152.5" as="targetPoint" />
          </mxGeometry>
        </mxCell>
        <mxCell id="gj13K4cqCs89u1ELZ8Dc-41" value="7x7x320" style="text;html=1;strokeColor=none;fillColor=none;align=center;verticalAlign=middle;whiteSpace=wrap;rounded=0;rotation=-90;" vertex="1" parent="1">
          <mxGeometry x="1120" y="109" width="40" height="20" as="geometry" />
        </mxCell>
        <mxCell id="gj13K4cqCs89u1ELZ8Dc-42" value="7x7x192" style="text;html=1;strokeColor=none;fillColor=none;align=center;verticalAlign=middle;whiteSpace=wrap;rounded=0;rotation=-90;" vertex="1" parent="1">
          <mxGeometry x="1060" y="108.75" width="40" height="20" as="geometry" />
        </mxCell>
        <mxCell id="gj13K4cqCs89u1ELZ8Dc-43" value="7x7x192" style="text;html=1;strokeColor=none;fillColor=none;align=center;verticalAlign=middle;whiteSpace=wrap;rounded=0;rotation=-90;" vertex="1" parent="1">
          <mxGeometry x="995" y="108.75" width="40" height="20" as="geometry" />
        </mxCell>
        <mxCell id="gj13K4cqCs89u1ELZ8Dc-44" value="7x7x192" style="text;html=1;strokeColor=none;fillColor=none;align=center;verticalAlign=middle;whiteSpace=wrap;rounded=0;rotation=-90;" vertex="1" parent="1">
          <mxGeometry x="930" y="109" width="40" height="20" as="geometry" />
        </mxCell>
        <mxCell id="gj13K4cqCs89u1ELZ8Dc-45" value="7x7x192" style="text;html=1;strokeColor=none;fillColor=none;align=center;verticalAlign=middle;whiteSpace=wrap;rounded=0;rotation=-90;" vertex="1" parent="1">
          <mxGeometry x="860" y="110" width="40" height="20" as="geometry" />
        </mxCell>
        <mxCell id="gj13K4cqCs89u1ELZ8Dc-46" value="14x14x112" style="text;html=1;strokeColor=none;fillColor=none;align=center;verticalAlign=middle;whiteSpace=wrap;rounded=0;rotation=-90;" vertex="1" parent="1">
          <mxGeometry x="793" y="102.5" width="40" height="20" as="geometry" />
        </mxCell>
        <mxCell id="gj13K4cqCs89u1ELZ8Dc-48" value="14x14x112" style="text;html=1;strokeColor=none;fillColor=none;align=center;verticalAlign=middle;whiteSpace=wrap;rounded=0;rotation=-90;" vertex="1" parent="1">
          <mxGeometry x="730" y="102.5" width="40" height="20" as="geometry" />
        </mxCell>
        <mxCell id="gj13K4cqCs89u1ELZ8Dc-49" value="14x14x112" style="text;html=1;strokeColor=none;fillColor=none;align=center;verticalAlign=middle;whiteSpace=wrap;rounded=0;rotation=-90;" vertex="1" parent="1">
          <mxGeometry x="660" y="102.5" width="40" height="20" as="geometry" />
        </mxCell>
        <mxCell id="gj13K4cqCs89u1ELZ8Dc-50" value="&lt;div&gt;28x28x80&lt;/div&gt;" style="text;html=1;strokeColor=none;fillColor=none;align=center;verticalAlign=middle;whiteSpace=wrap;rounded=0;rotation=-90;" vertex="1" parent="1">
          <mxGeometry x="595" y="102.5" width="40" height="20" as="geometry" />
        </mxCell>
        <mxCell id="gj13K4cqCs89u1ELZ8Dc-52" value="&lt;div&gt;28x28x80&lt;/div&gt;" style="text;html=1;strokeColor=none;fillColor=none;align=center;verticalAlign=middle;whiteSpace=wrap;rounded=0;rotation=-90;" vertex="1" parent="1">
          <mxGeometry x="535" y="102.5" width="40" height="20" as="geometry" />
        </mxCell>
        <mxCell id="gj13K4cqCs89u1ELZ8Dc-53" value="&lt;div&gt;28x28x80&lt;/div&gt;" style="text;html=1;strokeColor=none;fillColor=none;align=center;verticalAlign=middle;whiteSpace=wrap;rounded=0;rotation=-90;" vertex="1" parent="1">
          <mxGeometry x="477" y="102.5" width="40" height="20" as="geometry" />
        </mxCell>
        <mxCell id="gj13K4cqCs89u1ELZ8Dc-54" value="&lt;div&gt;28x28x40&lt;/div&gt;" style="text;html=1;strokeColor=none;fillColor=none;align=center;verticalAlign=middle;whiteSpace=wrap;rounded=0;rotation=-90;" vertex="1" parent="1">
          <mxGeometry x="416" y="101.5" width="40" height="20" as="geometry" />
        </mxCell>
        <mxCell id="gj13K4cqCs89u1ELZ8Dc-55" value="&lt;div&gt;28x28x40&lt;/div&gt;" style="text;html=1;strokeColor=none;fillColor=none;align=center;verticalAlign=middle;whiteSpace=wrap;rounded=0;rotation=-90;" vertex="1" parent="1">
          <mxGeometry x="353" y="101" width="40" height="20" as="geometry" />
        </mxCell>
        <mxCell id="gj13K4cqCs89u1ELZ8Dc-56" value="&lt;div&gt;56x56x24&lt;/div&gt;" style="text;html=1;strokeColor=none;fillColor=none;align=center;verticalAlign=middle;whiteSpace=wrap;rounded=0;rotation=-90;" vertex="1" parent="1">
          <mxGeometry x="285" y="101.5" width="40" height="20" as="geometry" />
        </mxCell>
        <mxCell id="gj13K4cqCs89u1ELZ8Dc-57" value="&lt;div&gt;56x56x24&lt;/div&gt;" style="text;html=1;strokeColor=none;fillColor=none;align=center;verticalAlign=middle;whiteSpace=wrap;rounded=0;rotation=-90;" vertex="1" parent="1">
          <mxGeometry x="225" y="100" width="40" height="20" as="geometry" />
        </mxCell>
        <mxCell id="gj13K4cqCs89u1ELZ8Dc-58" value="&lt;div&gt;112x112x16&lt;/div&gt;" style="text;html=1;strokeColor=none;fillColor=none;align=center;verticalAlign=middle;whiteSpace=wrap;rounded=0;rotation=-90;" vertex="1" parent="1">
          <mxGeometry x="165" y="93" width="40" height="20" as="geometry" />
        </mxCell>
        <mxCell id="gj13K4cqCs89u1ELZ8Dc-59" value="&lt;div&gt;112x112x32&lt;/div&gt;" style="text;html=1;strokeColor=none;fillColor=none;align=center;verticalAlign=middle;whiteSpace=wrap;rounded=0;rotation=-90;" vertex="1" parent="1">
          <mxGeometry x="106" y="90" width="40" height="20" as="geometry" />
        </mxCell>
      </root>
    </mxGraphModel>
  </diagram>
</mxfile>
